<?xml version="1.0" encoding="UTF-8"?>
<svg id="Layer_1" data-name="Layer 1" xmlns="http://www.w3.org/2000/svg" viewBox="0 0 64 64">
  <g>
    <path d="m7.7,13.8c.4,2.9.5,4.9.5,9v2.6h8.4v-2.6c0-4.2.2-6.1.5-9,0,0-9.4,0-9.4,0Zm.5,33c0,4.8-.8,6.1-4.2,7.7l.2.6c5.7-.4,12.4-1.9,12.4-10.3v-12.9h-8.4v14.9Z" fill="#fff" stroke-width="0"/>
    <path d="m50.9,31.9c-.4,7.7-3.8,14.1-10.7,14.1s-10.2-6.4-10.7-14.1h-9c1,9.6,9.2,15.1,19.7,15.1s18.7-5.4,19.6-15.1c.1,0-8.9,0-8.9,0Zm-10.7-18c6,0,9.4,5,10.4,11.5h8.8c-2.1-8-9.7-12.5-19.2-12.5s-17.1,4.5-19.2,12.5h8.8c1-6.5,4.3-11.5,10.4-11.5Z" fill="#fff" stroke-width="0"/>
  </g>
  <g>
    <path d="m11.92,27.51h.31v1.81c0,.16-.03.3-.09.41s-.14.2-.25.26c-.11.06-.24.09-.38.09-.14,0-.26-.03-.37-.08s-.19-.12-.26-.22-.09-.21-.09-.34h.3c0,.07.02.13.05.19.04.05.09.09.15.12.06.03.13.04.21.04.09,0,.16-.02.23-.06s.11-.09.14-.16.05-.16.05-.27v-1.81Z" fill="#bb8588" stroke-width="0"/>
    <path d="m16.43,27.51h.31v1.68c0,.17-.04.33-.12.46-.08.14-.2.24-.34.32-.15.08-.32.12-.52.12s-.37-.04-.52-.12c-.15-.08-.26-.19-.34-.32-.08-.14-.12-.29-.12-.46v-1.68h.31v1.66c0,.12.03.23.08.33s.13.17.23.23c.1.05.22.08.36.08s.26-.03.36-.08c.1-.06.18-.13.23-.23.05-.1.08-.21.08-.33v-1.66Z" fill="#bb8588" stroke-width="0"/>
    <path d="m20.06,30.05h-.78v-2.54h.82c.25,0,.46.05.63.15.18.1.31.25.4.44.09.19.14.41.14.68s-.05.49-.14.68-.23.34-.41.44c-.18.1-.4.15-.66.15Zm-.48-.27h.46c.21,0,.38-.04.52-.12.14-.08.24-.2.31-.35.07-.15.1-.33.1-.53s-.03-.38-.1-.53-.17-.26-.3-.34c-.13-.08-.3-.12-.5-.12h-.49v1.99Z" fill="#bb8588" stroke-width="0"/>
    <path d="m24.01,27.51v2.54h-.31v-2.54h.31Z" fill="#bb8588" stroke-width="0"/>
    <path d="m26.41,27.78v-.27h1.9v.27h-.8v2.27h-.31v-2.27h-.8Z" fill="#bb8588" stroke-width="0"/>
    <path d="m30.71,30.05v-2.54h.31v1.13h1.35v-1.13h.31v2.54h-.31v-1.14h-1.35v1.14h-.31Z" fill="#bb8588" stroke-width="0"/>
    <path d="m40.25,28.78c0,.27-.05.5-.14.69s-.23.35-.4.45c-.17.11-.36.16-.58.16s-.41-.05-.58-.16c-.17-.11-.3-.26-.4-.45s-.15-.43-.15-.69.05-.5.15-.69c.1-.19.23-.35.4-.45.17-.11.36-.16.58-.16s.41.05.58.16c.17.11.3.26.4.45.1.2.14.43.14.69Zm-.3,0c0-.22-.04-.41-.11-.56s-.17-.27-.3-.34-.26-.12-.42-.12-.29.04-.42.12c-.12.08-.22.19-.3.34s-.11.34-.11.56.04.41.11.56.17.27.3.34c.12.08.26.12.42.12s.29-.04.42-.12c.12-.08.22-.19.3-.34s.11-.34.11-.56Z" fill="#bb8588" stroke-width="0"/>
    <path d="m42.69,30.05v-2.54h.31v1.26h.03l1.14-1.26h.4l-1.07,1.15,1.07,1.39h-.37l-.88-1.18-.32.36v.82h-.31Z" fill="#bb8588" stroke-width="0"/>
    <path d="m48.91,28.78c0,.27-.05.5-.14.69s-.23.35-.4.45c-.17.11-.36.16-.58.16s-.41-.05-.58-.16c-.17-.11-.3-.26-.4-.45s-.15-.43-.15-.69.05-.5.15-.69c.1-.19.23-.35.4-.45.17-.11.36-.16.58-.16s.41.05.58.16c.17.11.3.26.4.45.1.2.14.43.14.69Zm-.3,0c0-.22-.04-.41-.11-.56s-.17-.27-.3-.34-.26-.12-.42-.12-.29.04-.42.12c-.12.08-.22.19-.3.34s-.11.34-.11.56.04.41.11.56.17.27.3.34c.12.08.26.12.42.12s.29-.04.42-.12c.12-.08.22-.19.3-.34s.11-.34.11-.56Z" fill="#bb8588" stroke-width="0"/>
    <path d="m53.36,27.51v2.54h-.3l-1.38-1.99h-.02v1.99h-.31v-2.54h.3l1.39,2h.03v-2h.3Z" fill="#bb8588" stroke-width="0"/>
  </g>
</svg>